# xmcd
#
# Track frame offsets:
#	150
#	19303
#	34284
#	51865
#	72327
#	86243
#	100988
#	119393
#	137983
#	149535
#	163152
#	192263
#
# Disc length: 2614 seconds
#
# Revision: 7
# Processed by: cddbd v1.5.2PL0 Copyright (c) Steve Scherf et al.
# Submitted via: EZCDAudioConverter 7.1.6.1
#
DISCID=ba0a340c
DTITLE=Rascal Flatts - Melt
DYEAR=2002
DGENRE=Country
TTITLE0=These Days
TTITLE1=Too Good Is True
TTITLE2=I Melt
TTITLE3=Mayberry
TTITLE4=Love You Out Loud
TTITLE5=Dry County Girl
TTITLE6=Like I Am
TTITLE7=You
TTITLE8=Fallin' Upside Down
TTITLE9=Shine On
TTITLE10=My Worst Fear
TTITLE11=Data Track
EXTD=
EXTT0=
EXTT1=
EXTT2=
EXTT3=
EXTT4=
EXTT5=
EXTT6=
EXTT7=
EXTT8=
EXTT9=
EXTT10=
EXTT11=
PLAYORDER=
